<?xml version="1.0"?>
<svg xmlns="http://www.w3.org/2000/svg" xmlns:xlink="http://www.w3.org/1999/xlink" xmlns:svgjs="http://svgjs.com/svgjs" version="1.1" width="512" height="512" x="0" y="0" viewBox="0 0 212.975 212.975" style="enable-background:new 0 0 512 512" xml:space="preserve" class=""><g>
<g xmlns="http://www.w3.org/2000/svg">
	<rect x="38.616" y="35.463" width="56.743" height="12" fill="#304cfd" data-original="#000000" style="" class=""/>
	<path d="M171.837,48.967c1.98,0,3.91-0.8,5.31-2.2c1.39-1.4,2.19-3.33,2.19-5.3c0-1.98-0.8-3.91-2.19-5.31   c-1.4-1.39-3.33-2.19-5.31-2.19c-1.97,0-3.9,0.8-5.3,2.19c-1.39,1.4-2.2,3.33-2.2,5.31c0,1.97,0.81,3.9,2.2,5.3   C167.937,48.167,169.867,48.967,171.837,48.967z" fill="#304cfd" data-original="#000000" style="" class=""/>
	<path d="M144.847,48.967c1.97,0,3.9-0.8,5.3-2.2c1.39-1.4,2.19-3.33,2.19-5.3c0-1.98-0.8-3.91-2.19-5.31   c-1.4-1.39-3.33-2.19-5.3-2.19c-1.98,0-3.91,0.8-5.31,2.19c-1.39,1.4-2.19,3.33-2.19,5.31c0,1.97,0.8,3.9,2.19,5.3   C140.937,48.167,142.867,48.967,144.847,48.967z" fill="#304cfd" data-original="#000000" style="" class=""/>
	<path d="M117.847,48.967c1.97,0,3.9-0.8,5.3-2.2c1.4-1.4,2.2-3.33,2.2-5.3c0-1.98-0.8-3.91-2.2-5.31c-1.4-1.39-3.33-2.19-5.3-2.19   c-1.98,0-3.91,0.8-5.31,2.19c-1.39,1.4-2.19,3.33-2.19,5.31c0,1.97,0.8,3.9,2.19,5.3C113.937,48.167,115.867,48.967,117.847,48.967   z" fill="#304cfd" data-original="#000000" style="" class=""/>
	<path d="M0,10.678v191.618h212.975V10.678H0z M197.975,25.678v31.571H15V25.678H197.975z M15,187.296V72.249h182.975v115.047H15z" fill="#304cfd" data-original="#000000" style="" class=""/>
	<path d="M106.487,96.206c-26.972,0-48.915,21.943-48.915,48.915c0,8.604,2.266,17.064,6.552,24.467l10.385-6.013   c-3.229-5.578-4.936-11.96-4.936-18.455c0-20.355,16.56-36.915,36.915-36.915s36.915,16.56,36.915,36.915   c0,6.494-1.708,12.877-4.939,18.46l10.386,6.011c4.287-7.408,6.553-15.87,6.553-24.471   C155.402,118.15,133.459,96.206,106.487,96.206z" fill="#304cfd" data-original="#000000" style="" class=""/>
	<polygon points="110.729,154.321 131.287,125.279 102.244,145.836  " fill="#304cfd" data-original="#000000" style="" class=""/>
</g>
<g xmlns="http://www.w3.org/2000/svg">
</g>
<g xmlns="http://www.w3.org/2000/svg">
</g>
<g xmlns="http://www.w3.org/2000/svg">
</g>
<g xmlns="http://www.w3.org/2000/svg">
</g>
<g xmlns="http://www.w3.org/2000/svg">
</g>
<g xmlns="http://www.w3.org/2000/svg">
</g>
<g xmlns="http://www.w3.org/2000/svg">
</g>
<g xmlns="http://www.w3.org/2000/svg">
</g>
<g xmlns="http://www.w3.org/2000/svg">
</g>
<g xmlns="http://www.w3.org/2000/svg">
</g>
<g xmlns="http://www.w3.org/2000/svg">
</g>
<g xmlns="http://www.w3.org/2000/svg">
</g>
<g xmlns="http://www.w3.org/2000/svg">
</g>
<g xmlns="http://www.w3.org/2000/svg">
</g>
<g xmlns="http://www.w3.org/2000/svg">
</g>
</g></svg>
