<?xml version="1.0"?>
<svg xmlns="http://www.w3.org/2000/svg" xmlns:xlink="http://www.w3.org/1999/xlink" xmlns:svgjs="http://svgjs.com/svgjs" version="1.1" width="512" height="512" x="0" y="0" viewBox="0 0 60 60" style="enable-background:new 0 0 512 512" xml:space="preserve" class=""><g><path xmlns="http://www.w3.org/2000/svg" d="m55.5 60h-51c-2.481 0-4.5-2.019-4.5-4.5v-51c0-2.481 2.019-4.5 4.5-4.5h51c2.481 0 4.5 2.019 4.5 4.5v51c0 2.481-2.019 4.5-4.5 4.5zm-51-58c-1.378 0-2.5 1.122-2.5 2.5v51c0 1.378 1.122 2.5 2.5 2.5h51c1.379 0 2.5-1.122 2.5-2.5v-51c0-1.378-1.122-2.5-2.5-2.5z" fill="#304cfd" data-original="#000000" style="" class=""/><path xmlns="http://www.w3.org/2000/svg" d="m9 10h-4c-.552 0-1-.448-1-1v-4c0-.552.448-1 1-1h4c.552 0 1 .448 1 1v4c0 .552-.448 1-1 1zm-3-2h2v-2h-2z" fill="#304cfd" data-original="#000000" style="" class=""/><path xmlns="http://www.w3.org/2000/svg" d="m17 10h-4c-.552 0-1-.448-1-1v-4c0-.552.448-1 1-1h4c.552 0 1 .448 1 1v4c0 .552-.448 1-1 1zm-3-2h2v-2h-2z" fill="#304cfd" data-original="#000000" style="" class=""/><path xmlns="http://www.w3.org/2000/svg" d="m25 10h-4c-.552 0-1-.448-1-1v-4c0-.552.448-1 1-1h4c.552 0 1 .448 1 1v4c0 .552-.448 1-1 1zm-3-2h2v-2h-2z" fill="#304cfd" data-original="#000000" style="" class=""/><path xmlns="http://www.w3.org/2000/svg" d="m59 14h-58c-.552 0-1-.448-1-1v-8.5c0-2.481 2.019-4.5 4.5-4.5h51c2.481 0 4.5 2.019 4.5 4.5v8.5c0 .552-.448 1-1 1zm-57-2h56v-7.5c0-1.378-1.122-2.5-2.5-2.5h-51c-1.378 0-2.5 1.122-2.5 2.5z" fill="#304cfd" data-original="#000000" style="" class=""/><path xmlns="http://www.w3.org/2000/svg" d="m17 30h-12c-.552 0-1-.448-1-1v-12c0-.552.448-1 1-1h12c.552 0 1 .448 1 1v12c0 .552-.448 1-1 1zm-11-2h10v-10h-10z" fill="#304cfd" data-original="#000000" style="" class=""/><path xmlns="http://www.w3.org/2000/svg" d="m55 30h-12c-.552 0-1-.448-1-1v-12c0-.552.448-1 1-1h12c.552 0 1 .448 1 1v12c0 .552-.448 1-1 1zm-11-2h10v-10h-10z" fill="#304cfd" data-original="#000000" style="" class=""/><path xmlns="http://www.w3.org/2000/svg" d="m36 30h-12c-.552 0-1-.448-1-1v-12c0-.552.448-1 1-1h12c.552 0 1 .448 1 1v12c0 .552-.448 1-1 1zm-11-2h10v-10h-10z" fill="#304cfd" data-original="#000000" style="" class=""/><path xmlns="http://www.w3.org/2000/svg" d="m12 24h-2c-.552 0-1-.448-1-1s.448-1 1-1h2c.552 0 1 .448 1 1s-.448 1-1 1z" fill="#304cfd" data-original="#000000" style="" class=""/><path xmlns="http://www.w3.org/2000/svg" d="m31 24h-2c-.552 0-1-.448-1-1s.448-1 1-1h2c.552 0 1 .448 1 1s-.448 1-1 1z" fill="#304cfd" data-original="#000000" style="" class=""/><path xmlns="http://www.w3.org/2000/svg" d="m50 24h-2c-.552 0-1-.448-1-1s.448-1 1-1h2c.552 0 1 .448 1 1s-.448 1-1 1z" fill="#304cfd" data-original="#000000" style="" class=""/><path xmlns="http://www.w3.org/2000/svg" d="m17 34h-1c-.552 0-1-.448-1-1s.448-1 1-1h1c.552 0 1 .448 1 1s-.448 1-1 1z" fill="#304cfd" data-original="#000000" style="" class=""/><path xmlns="http://www.w3.org/2000/svg" d="m12 34h-7c-.552 0-1-.448-1-1s.448-1 1-1h7c.552 0 1 .448 1 1s-.448 1-1 1z" fill="#304cfd" data-original="#000000" style="" class=""/><path xmlns="http://www.w3.org/2000/svg" d="m6 38h-1c-.552 0-1-.448-1-1s.448-1 1-1h1c.552 0 1 .448 1 1s-.448 1-1 1z" fill="#304cfd" data-original="#000000" style="" class=""/><path xmlns="http://www.w3.org/2000/svg" d="m17 38h-7c-.552 0-1-.448-1-1s.448-1 1-1h7c.552 0 1 .448 1 1s-.448 1-1 1z" fill="#304cfd" data-original="#000000" style="" class=""/><path xmlns="http://www.w3.org/2000/svg" d="m36 34h-1c-.552 0-1-.448-1-1s.448-1 1-1h1c.552 0 1 .448 1 1s-.448 1-1 1z" fill="#304cfd" data-original="#000000" style="" class=""/><path xmlns="http://www.w3.org/2000/svg" d="m31 34h-7c-.552 0-1-.448-1-1s.448-1 1-1h7c.552 0 1 .448 1 1s-.448 1-1 1z" fill="#304cfd" data-original="#000000" style="" class=""/><path xmlns="http://www.w3.org/2000/svg" d="m25 38h-1c-.552 0-1-.448-1-1s.448-1 1-1h1c.552 0 1 .448 1 1s-.448 1-1 1z" fill="#304cfd" data-original="#000000" style="" class=""/><path xmlns="http://www.w3.org/2000/svg" d="m36 38h-7c-.552 0-1-.448-1-1s.448-1 1-1h7c.552 0 1 .448 1 1s-.448 1-1 1z" fill="#304cfd" data-original="#000000" style="" class=""/><path xmlns="http://www.w3.org/2000/svg" d="m55 34h-1c-.552 0-1-.448-1-1s.448-1 1-1h1c.552 0 1 .448 1 1s-.448 1-1 1z" fill="#304cfd" data-original="#000000" style="" class=""/><path xmlns="http://www.w3.org/2000/svg" d="m50 34h-7c-.552 0-1-.448-1-1s.448-1 1-1h7c.552 0 1 .448 1 1s-.448 1-1 1z" fill="#304cfd" data-original="#000000" style="" class=""/><path xmlns="http://www.w3.org/2000/svg" d="m44 38h-1c-.552 0-1-.448-1-1s.448-1 1-1h1c.552 0 1 .448 1 1s-.448 1-1 1z" fill="#304cfd" data-original="#000000" style="" class=""/><path xmlns="http://www.w3.org/2000/svg" d="m55 38h-7c-.552 0-1-.448-1-1s.448-1 1-1h7c.552 0 1 .448 1 1s-.448 1-1 1z" fill="#304cfd" data-original="#000000" style="" class=""/><path xmlns="http://www.w3.org/2000/svg" d="m55 56h-25c-.552 0-1-.448-1-1v-14c0-.552.448-1 1-1h25c.552 0 1 .448 1 1v14c0 .552-.448 1-1 1zm-24-2h23v-12h-23z" fill="#304cfd" data-original="#000000" style="" class=""/><path xmlns="http://www.w3.org/2000/svg" d="m25 56h-20c-.552 0-1-.448-1-1v-14c0-.552.448-1 1-1h20c.552 0 1 .448 1 1v14c0 .552-.448 1-1 1zm-19-2h18v-12h-18z" fill="#304cfd" data-original="#000000" style="" class=""/><path xmlns="http://www.w3.org/2000/svg" d="m51 47h-1c-.552 0-1-.448-1-1s.448-1 1-1h1c.552 0 1 .448 1 1s-.448 1-1 1z" fill="#304cfd" data-original="#000000" style="" class=""/><path xmlns="http://www.w3.org/2000/svg" d="m46 47h-12c-.552 0-1-.448-1-1s.448-1 1-1h12c.552 0 1 .448 1 1s-.448 1-1 1z" fill="#304cfd" data-original="#000000" style="" class=""/><path xmlns="http://www.w3.org/2000/svg" d="m35 51h-1c-.552 0-1-.448-1-1s.448-1 1-1h1c.552 0 1 .448 1 1s-.448 1-1 1z" fill="#304cfd" data-original="#000000" style="" class=""/><path xmlns="http://www.w3.org/2000/svg" d="m51 51h-12c-.552 0-1-.448-1-1s.448-1 1-1h12c.552 0 1 .448 1 1s-.448 1-1 1z" fill="#304cfd" data-original="#000000" style="" class=""/><path xmlns="http://www.w3.org/2000/svg" d="m15 52c-.552 0-1-.448-1-1v-6c0-.552.448-1 1-1s1 .448 1 1v6c0 .552-.448 1-1 1z" fill="#304cfd" data-original="#000000" style="" class=""/><path xmlns="http://www.w3.org/2000/svg" d="m18 49h-6c-.552 0-1-.448-1-1s.448-1 1-1h6c.552 0 1 .448 1 1s-.448 1-1 1z" fill="#304cfd" data-original="#000000" style="" class=""/></g></svg>
